Coordinates
version=1
nRows=12
nColumns=46
inDegrees=yes

Units are S.I. units (second, meters, Newtons, ...)
Angles are in degrees.

endheader
time	pelvis_tilt	pelvis_list	pelvis_rotation	pelvis_tx	pelvis_ty	pelvis_tz	bb_angle	bb_tx	bb_ty	bb_tz	hip_flexion_r	hip_adduction_r	hip_rotation_r	knee_angle_r	knee_angle_r_beta	ankle_angle_r	subtalar_angle_r	mtp_angle_r	crank_angle_r	hip_flexion_l	hip_adduction_l	hip_rotation_l	knee_angle_l	knee_angle_l_beta	ankle_angle_l	subtalar_angle_l	mtp_angle_l	crank_angle_l	lumbar_extension	lumbar_bending	lumbar_rotation	arm_flex_r	arm_add_r	arm_rot_r	elbow_flex_r	pro_sup_r	wrist_flex_r	wrist_dev_r	arm_flex_l	arm_add_l	arm_rot_l	elbow_flex_l	pro_sup_l	wrist_flex_l	wrist_dev_l
      2.50500000	    -33.92698651	     -6.25780919	     -3.93125217	      0.38316352	      1.07560133	     -0.20416022	      0.00000000	      0.50000000	      0.00000000	      0.25000000	     87.53581638	      5.58441125	      1.17988571	    106.77494253	      1.86357431	      2.25626383	     -8.51996753	      0.00000000	      0.00000000	     38.08245734	    -15.29666539	    -10.19649671	     29.24909894	      0.51049308	    -38.02891808	     -4.05961097	      0.00000000	      0.00000000	    -65.20865963	      2.33041907	      4.87411609	     40.08530044	    -34.29233500	     29.81034025	    124.92013376	     57.71131153	      0.00000000	      0.00000000	     22.06427658	    -21.03386628	      3.93311654	    126.75456708	     55.98869797	      0.00000000	      0.00000000
      2.51000000	    -34.46558151	     -5.97806413	     -4.28682003	      0.38230617	      1.07724009	     -0.20434314	      0.00000000	      0.50000000	      0.00000000	      0.25000000	     87.71252980	      5.50594005	      1.38175636	    105.08873301	      1.83414440	      3.73583753	     -7.70163408	      0.00000000	      0.00000000	     38.97490826	    -14.90387999	     -9.10490783	     31.10696015	      0.54291887	    -37.99199513	     -6.14856455	      0.00000000	      0.00000000	    -65.16672276	      2.06519055	      4.80708921	     40.94740620	    -34.84184095	     30.39397462	    125.24215599	     57.81982756	      0.00000000	      0.00000000	     22.28462522	    -21.10355236	      3.46482001	    126.94260062	     55.96589478	      0.00000000	      0.00000000
      2.51500000	    -34.69434556	     -6.03719451	     -4.62503071	      0.38275803	      1.07956070	     -0.20372602	      0.00000000	      0.50000000	      0.00000000	      0.25000000	     87.15272098	      5.68269742	      1.20615449	    103.11210238	      1.79964569	      5.39768880	     -7.40090513	      0.00000000	      0.00000000	     39.53997017	    -14.90902152	     -8.00489242	     32.99152877	      0.57581080	    -37.81614475	     -7.81034918	      0.00000000	      0.00000000	    -65.50286225	      1.85840533	      4.97224485	     41.46069665	    -35.07525004	     30.77333073	    125.45409733	     57.89103579	      0.00000000	      0.00000000	     22.47688573	    -21.28430954	      3.15097893	    127.07795879	     55.95025905	      0.00000000	      0.00000000
      2.52000000	    -35.05120284	     -6.21443409	     -4.83524396	      0.38344684	      1.08146275	     -0.20281673	      0.00000000	      0.50000000	      0.00000000	      0.25000000	     86.55164577	      5.74844341	      0.82922447	    100.95305039	      1.76196312	      6.86533190	     -6.98601893	      0.00000000	      0.00000000	     40.38515161	    -14.95320922	     -6.61761862	     34.95976981	      0.61016309	    -37.87533314	     -9.31161723	      0.00000000	      0.00000000	    -65.66563073	      1.80393054	      5.18747148	     41.93471292	    -35.34423199	     31.32064595	    125.73733838	     57.99627046	      0.00000000	      0.00000000	     22.52382308	    -21.52360253	      2.77406323	    127.22132928	     55.93316959	      0.00000000	      0.00000000
      2.52500000	    -35.68425314	     -5.86391014	     -4.93944480	      0.38281786	      1.08215799	     -0.20299057	      0.00000000	      0.50000000	      0.00000000	      0.25000000	     86.33089561	      5.40404187	      0.90659909	     98.76667106	      1.72380360	      8.25881059	     -6.60975449	      0.00000000	      0.00000000	     41.66582318	    -14.22688620	     -4.98660010	     36.99683453	      0.64571658	    -38.08074723	    -10.90814348	      0.00000000	      0.00000000	    -65.32940594	      1.71534741	      4.83086442	     42.70422563	    -35.96844428	     32.52439441	    126.10677726	     58.18897708	      0.00000000	      0.00000000	     22.23057938	    -21.68342530	      2.14313580	    127.43102823	     55.92331521	      0.00000000	      0.00000000
      2.53000000	    -35.97557593	     -5.83798564	     -5.18522328	      0.38329141	      1.08352759	     -0.20214579	      0.00000000	      0.50000000	      0.00000000	      0.25000000	     85.46196399	      5.43352094	      0.62534326	     96.30846098	      1.68089974	      9.45494444	     -6.46192155	      0.00000000	      0.00000000	     42.52517933	    -14.05777216	     -3.64406691	     38.97270239	      0.68020198	    -38.28188038	    -11.96690572	      0.00000000	      0.00000000	    -65.36743817	      1.49489496	      4.84218689	     42.95880153	    -35.92668626	     32.91085515	    126.11201428	     58.22578057	      0.00000000	      0.00000000	     22.25709130	    -21.99754221	      1.75473015	    127.49401471	     55.89669508	      0.00000000	      0.00000000
      2.53500000	    -36.40701865	     -5.80089447	     -5.27959682	      0.38356154	      1.08431168	     -0.20154629	      0.00000000	      0.50000000	      0.00000000	      0.25000000	     84.66735207	      5.27948997	      0.28850349	     93.74029212	      1.63607674	     10.49616398	     -6.42443584	      0.00000000	      0.00000000	     43.64214767	    -13.72245204	     -2.07840215	     41.02678830	      0.71605254	    -38.43097058	    -12.77582372	      0.00000000	      0.00000000	    -65.16979053	      1.48432406	      4.75111149	     43.23050862	    -35.92573444	     33.40903953	    126.08420145	     58.26459655	      0.00000000	      0.00000000	     21.90123048	    -22.21965601	      1.24817840	    127.55262136	     55.87361787	      0.00000000	      0.00000000
      2.54000000	    -36.70338991	     -5.63017031	     -5.46098702	      0.38384937	      1.08488388	     -0.20072781	      0.00000000	      0.50000000	      0.00000000	      0.25000000	     83.72589223	      5.13013713	     -0.06062395	     91.11276597	      1.59021776	     11.25519690	     -6.61347823	      0.00000000	      0.00000000	     44.58027013	    -13.33597997	     -0.78413579	     43.15275008	      0.75315757	    -38.44464132	    -13.64616681	      0.00000000	      0.00000000	    -64.97439703	      1.23363873	      4.38031490	     43.42549868	    -35.72606259	     34.02802505	    125.90090787	     58.27234876	      0.00000000	      0.00000000	     21.46510234	    -22.46848818	      0.57850789	    127.71492390	     55.88130147	      0.00000000	      0.00000000
      2.54500000	    -36.91622437	     -5.29908209	     -5.54941940	      0.38429940	      1.08521886	     -0.20005577	      0.00000000	      0.50000000	      0.00000000	      0.25000000	     82.63840036	      4.89166888	     -0.21712028	     88.42698434	      1.54334202	     11.79415969	     -6.97283888	      0.00000000	      0.00000000	     45.43871077	    -12.75281634	      0.27954887	     45.32341703	      0.79104286	    -38.37426804	    -14.50881814	      0.00000000	      0.00000000	    -64.81262330	      0.94990946	      4.08806910	     43.16314531	    -35.60940318	     34.12319527	    125.90183549	     58.27869936	      0.00000000	      0.00000000	     21.39296974	    -22.69096715	      0.35540339	    127.66431860	     55.85932495	      0.00000000	      0.00000000
      2.55000000	    -37.21936553	     -4.88138713	     -5.58617180	      0.38455771	      1.08492579	     -0.19946296	      0.00000000	      0.50000000	      0.00000000	      0.25000000	     81.67451663	      4.57858988	     -0.28267227	     85.73250301	      1.49631445	     11.94105209	     -7.44013758	      0.00000000	      0.00000000	     46.46015097	    -12.08372693	      1.23653324	     47.64889538	      0.83163011	    -38.15455687	    -15.28373207	      0.00000000	      0.00000000	    -64.44418985	      0.67120746	      3.71750231	     42.68494466	    -35.45081596	     34.19909037	    125.90381305	     58.28482844	      0.00000000	      0.00000000	     21.19133267	    -22.85651441	      0.12849861	    127.54717375	     55.83109160	      0.00000000	      0.00000000
      2.55500000	    -37.36933877	     -4.33525784	     -5.60625253	      0.38505749	      1.08465497	     -0.19903231	      0.00000000	      0.50000000	      0.00000000	      0.25000000	     80.52560713	      4.20636674	     -0.27429503	     82.95867585	      1.44790204	     11.91681185	     -7.63264600	      0.00000000	      0.00000000	     47.30126123	    -11.37498581	      1.81605540	     49.99934926	      0.87265327	    -37.69852584	    -15.85411866	      0.00000000	      0.00000000	    -64.21071595	      0.30355023	      3.26193808	     42.16688018	    -35.31291256	     34.25005776	    125.90142876	     58.29193514	      0.00000000	      0.00000000	     21.08594367	    -22.92595285	      0.04504375	    127.39660089	     55.80998657	      0.00000000	      0.00000000
      2.56000000	    -37.61715861	     -3.95783895	     -5.59407191	      0.38533449	      1.08390970	     -0.19850229	      0.00000000	      0.50000000	      0.00000000	      0.25000000	     79.47934440	      3.86800669	     -0.49130454	     80.18657735	      1.39951979	     11.85483517	     -7.52380273	      0.00000000	      0.00000000	     48.40151999	    -10.91394368	      2.34702015	     52.52709554	      0.91677076	    -37.11679906	    -16.11119187	      0.00000000	      0.00000000	    -63.82663181	      0.02733559	      2.97839099	     41.55779463	    -35.06524248	     34.25851652	    125.85293996	     58.28108426	      0.00000000	      0.00000000	     20.93069750	    -22.96961597	      0.02930420	    127.11952744	     55.78834304	      0.00000000	      0.00000000
